<svg xmlns="http://www.w3.org/2000/svg" viewBox="0 0 920 764" width="920" height="764">
	<defs>
		<linearGradient id="grd1" gradientUnits="userSpaceOnUse"  x1="372.166" y1="763.677" x2="548.304" y2="0.738">
			<stop offset="0" stop-color="#ff8f5a"  />
			<stop offset="0.987" stop-color="#ff2f95"  />
		</linearGradient>
	</defs>
	<style>
		tspan { white-space:pre }
		.shp0 { fill: url(#grd1) } 
	</style>
	<g id="1_экран">
		<g id="bg+Человек+фигура">
			<path id="Ellipse 1" class="shp0" d="M395.52 40.41C502.26 -10.05 602.99 -10.2 687.21 27.67C771.65 65.24 839.57 140.84 885.7 234.79C929.97 329.67 929.93 431.58 893.77 514.03C857.11 597.7 796.1 660.78 712.97 705.8C668.94 728.47 622.65 744 563.82 753.53C505.76 762.93 435.14 766.33 360.32 761.48C211.85 752.16 45.45 708.4 10.36 609.69C-9.53 560.68 2.95 504.49 27.68 447.95C52.81 391.33 90.18 334.35 129.42 281.83C169.06 229.24 210.57 181.12 253.31 140.31C296.45 99.41 340.82 65.83 395.52 40.41L395.52 40.41Z" />
		</g>
	</g>
</svg>